# xmcd
#
# Track frame offsets:
#	150
#	17816
#	29223
#	44116
#	55035
#	69361
#	85206
#	97949
#	108196
#	125630
#	137228
#	147084
#	159456
#	172360
#	184899
#	201950
#	213612
#	223201
#
# Disc length: 3098 seconds
#
# Revision: 0
# Processed by: cddbd v1.5.1PL0 Copyright (c) Steve Scherf et al.
# Submitted via: dBpowerAMP V4.0
#
DISCID=1d0c1812
DTITLE=聖經-舊約 - Disc 35
DYEAR=1900
DGENRE=
TTITLE0=約伯記第1章
TTITLE1=約伯記第2章
TTITLE2=約伯記第3章
TTITLE3=約伯記第4章
TTITLE4=約伯記第5章
TTITLE5=約伯記第6章
TTITLE6=約伯記第7章
TTITLE7=約伯記第8章
TTITLE8=約伯記第9章
TTITLE9=約伯記第10章
TTITLE10=約伯記第11章
TTITLE11=約伯記第12章
TTITLE12=約伯記第13章
TTITLE13=約伯記第14章
TTITLE14=約伯記第15章
TTITLE15=約伯記第16章
TTITLE16=約伯記第17章
TTITLE17=約伯記第18章
EXTD=
EXTT0=
EXTT1=
EXTT2=
EXTT3=
EXTT4=
EXTT5=
EXTT6=
EXTT7=
EXTT8=
EXTT9=
EXTT10=
EXTT11=
EXTT12=
EXTT13=
EXTT14=
EXTT15=
EXTT16=
EXTT17=
PLAYORDER=
